<mxfile host="app.diagrams.net" agent="Mozilla/5.0 (Windows NT 10.0; Win64; x64) AppleWebKit/537.36 (KHTML, like Gecko) Chrome/131.0.0.0 Safari/537.36" version="26.0.9">
  <diagram name="Page-1" id="2CFKUSTSEM9jE67srIsJ">
    <mxGraphModel dx="1750" dy="928" grid="1" gridSize="10" guides="1" tooltips="1" connect="1" arrows="1" fold="1" page="1" pageScale="1" pageWidth="827" pageHeight="1169" math="0" shadow="0">
      <root>
        <mxCell id="0" />
        <mxCell id="1" parent="0" />
        <mxCell id="2Tlwa4Nk3-ou1eAD5DM0-1" value="ผู้ดูแลระบบ" style="rounded=0;whiteSpace=wrap;html=1;" vertex="1" parent="1">
          <mxGeometry x="10" y="220" width="90" height="40" as="geometry" />
        </mxCell>
        <mxCell id="2Tlwa4Nk3-ou1eAD5DM0-12" value="1" style="swimlane;childLayout=stackLayout;horizontal=1;startSize=20;horizontalStack=0;rounded=1;fontSize=14;fontStyle=0;strokeWidth=2;resizeParent=0;resizeLast=1;shadow=0;dashed=0;align=center;arcSize=37;whiteSpace=wrap;html=1;" vertex="1" parent="1">
          <mxGeometry x="320" y="200" width="165" height="80" as="geometry" />
        </mxCell>
        <mxCell id="2Tlwa4Nk3-ou1eAD5DM0-14" value="จัดการข้อมูลบริการและแพ็กเกจ" style="text;html=1;align=center;verticalAlign=middle;resizable=0;points=[];autosize=1;strokeColor=none;fillColor=none;" vertex="1" parent="2Tlwa4Nk3-ou1eAD5DM0-12">
          <mxGeometry y="20" width="165" height="60" as="geometry" />
        </mxCell>
        <mxCell id="2Tlwa4Nk3-ou1eAD5DM0-18" value="หมวดหมู่" style="shape=partialRectangle;whiteSpace=wrap;html=1;left=0;right=0;fillColor=none;" vertex="1" parent="1">
          <mxGeometry x="680" y="140" width="120" height="40" as="geometry" />
        </mxCell>
        <mxCell id="2Tlwa4Nk3-ou1eAD5DM0-19" value="D1" style="rounded=0;whiteSpace=wrap;html=1;" vertex="1" parent="1">
          <mxGeometry x="640" y="140" width="40" height="40" as="geometry" />
        </mxCell>
        <mxCell id="2Tlwa4Nk3-ou1eAD5DM0-20" value="บริการ" style="shape=partialRectangle;whiteSpace=wrap;html=1;left=0;right=0;fillColor=none;" vertex="1" parent="1">
          <mxGeometry x="680" y="220" width="120" height="40" as="geometry" />
        </mxCell>
        <mxCell id="2Tlwa4Nk3-ou1eAD5DM0-21" value="D2" style="rounded=0;whiteSpace=wrap;html=1;" vertex="1" parent="1">
          <mxGeometry x="640" y="220" width="40" height="40" as="geometry" />
        </mxCell>
        <mxCell id="2Tlwa4Nk3-ou1eAD5DM0-22" value="แพ็กเกจ" style="shape=partialRectangle;whiteSpace=wrap;html=1;left=0;right=0;fillColor=none;" vertex="1" parent="1">
          <mxGeometry x="680" y="300" width="120" height="40" as="geometry" />
        </mxCell>
        <mxCell id="2Tlwa4Nk3-ou1eAD5DM0-23" value="D3" style="rounded=0;whiteSpace=wrap;html=1;" vertex="1" parent="1">
          <mxGeometry x="640" y="300" width="40" height="40" as="geometry" />
        </mxCell>
        <mxCell id="2Tlwa4Nk3-ou1eAD5DM0-24" value="" style="endArrow=classic;startArrow=classic;html=1;rounded=0;exitX=0.75;exitY=0;exitDx=0;exitDy=0;entryX=0;entryY=0.5;entryDx=0;entryDy=0;" edge="1" parent="1" source="2Tlwa4Nk3-ou1eAD5DM0-12" target="2Tlwa4Nk3-ou1eAD5DM0-19">
          <mxGeometry width="50" height="50" relative="1" as="geometry">
            <mxPoint x="460" y="190" as="sourcePoint" />
            <mxPoint x="510" y="140" as="targetPoint" />
            <Array as="points">
              <mxPoint x="444" y="160" />
            </Array>
          </mxGeometry>
        </mxCell>
        <mxCell id="2Tlwa4Nk3-ou1eAD5DM0-25" value="" style="endArrow=classic;startArrow=classic;html=1;rounded=0;exitX=1;exitY=0.5;exitDx=0;exitDy=0;entryX=0;entryY=0.5;entryDx=0;entryDy=0;" edge="1" parent="1" source="2Tlwa4Nk3-ou1eAD5DM0-12" target="2Tlwa4Nk3-ou1eAD5DM0-21">
          <mxGeometry width="50" height="50" relative="1" as="geometry">
            <mxPoint x="490" y="250" as="sourcePoint" />
            <mxPoint x="520" y="220" as="targetPoint" />
          </mxGeometry>
        </mxCell>
        <mxCell id="2Tlwa4Nk3-ou1eAD5DM0-26" value="" style="endArrow=classic;startArrow=classic;html=1;rounded=0;exitX=0.75;exitY=1;exitDx=0;exitDy=0;entryX=0;entryY=0.5;entryDx=0;entryDy=0;" edge="1" parent="1" source="2Tlwa4Nk3-ou1eAD5DM0-12" target="2Tlwa4Nk3-ou1eAD5DM0-23">
          <mxGeometry width="50" height="50" relative="1" as="geometry">
            <mxPoint x="460" y="320" as="sourcePoint" />
            <mxPoint x="510" y="270" as="targetPoint" />
            <Array as="points">
              <mxPoint x="444" y="320" />
            </Array>
          </mxGeometry>
        </mxCell>
        <mxCell id="2Tlwa4Nk3-ou1eAD5DM0-27" value="" style="endArrow=classic;startArrow=classic;html=1;rounded=0;exitX=1;exitY=0.5;exitDx=0;exitDy=0;entryX=0;entryY=0.5;entryDx=0;entryDy=0;" edge="1" parent="1" source="2Tlwa4Nk3-ou1eAD5DM0-1" target="2Tlwa4Nk3-ou1eAD5DM0-12">
          <mxGeometry width="50" height="50" relative="1" as="geometry">
            <mxPoint x="360" y="260" as="sourcePoint" />
            <mxPoint x="410" y="210" as="targetPoint" />
          </mxGeometry>
        </mxCell>
        <mxCell id="2Tlwa4Nk3-ou1eAD5DM0-28" value="2" style="swimlane;childLayout=stackLayout;horizontal=1;startSize=20;horizontalStack=0;rounded=1;fontSize=14;fontStyle=0;strokeWidth=2;resizeParent=0;resizeLast=1;shadow=0;dashed=0;align=center;arcSize=37;whiteSpace=wrap;html=1;" vertex="1" parent="1">
          <mxGeometry x="320" y="390" width="165" height="80" as="geometry" />
        </mxCell>
        <mxCell id="2Tlwa4Nk3-ou1eAD5DM0-29" value="จัดการข้อมูลพนักงาน" style="text;html=1;align=center;verticalAlign=middle;resizable=0;points=[];autosize=1;strokeColor=none;fillColor=none;" vertex="1" parent="2Tlwa4Nk3-ou1eAD5DM0-28">
          <mxGeometry y="20" width="165" height="60" as="geometry" />
        </mxCell>
        <mxCell id="2Tlwa4Nk3-ou1eAD5DM0-30" value="จัดการข้อมูลบริการและแพ็กเกจ" style="text;html=1;align=center;verticalAlign=middle;resizable=0;points=[];autosize=1;strokeColor=none;fillColor=none;" vertex="1" parent="1">
          <mxGeometry x="120" y="210" width="180" height="30" as="geometry" />
        </mxCell>
        <mxCell id="2Tlwa4Nk3-ou1eAD5DM0-31" value="ข้อมูลหมวดหมู่" style="text;align=center;verticalAlign=middle;resizable=0;points=[];autosize=1;strokeColor=none;fillColor=none;" vertex="1" parent="1">
          <mxGeometry x="500" y="130" width="100" height="30" as="geometry" />
        </mxCell>
        <mxCell id="2Tlwa4Nk3-ou1eAD5DM0-32" value="ข้อมูลบริการ" style="text;align=center;verticalAlign=middle;resizable=0;points=[];autosize=1;strokeColor=none;fillColor=none;" vertex="1" parent="1">
          <mxGeometry x="510" y="210" width="80" height="30" as="geometry" />
        </mxCell>
        <mxCell id="2Tlwa4Nk3-ou1eAD5DM0-33" value="ข้อมูลแพ็กเกจ" style="text;align=center;verticalAlign=middle;resizable=0;points=[];autosize=1;strokeColor=none;fillColor=none;" vertex="1" parent="1">
          <mxGeometry x="505" y="290" width="90" height="30" as="geometry" />
        </mxCell>
        <mxCell id="2Tlwa4Nk3-ou1eAD5DM0-34" value="" style="endArrow=classic;startArrow=classic;html=1;rounded=0;entryX=0.75;entryY=1;entryDx=0;entryDy=0;exitX=0;exitY=0.5;exitDx=0;exitDy=0;" edge="1" parent="1" source="2Tlwa4Nk3-ou1eAD5DM0-28" target="2Tlwa4Nk3-ou1eAD5DM0-1">
          <mxGeometry width="50" height="50" relative="1" as="geometry">
            <mxPoint x="310" y="440" as="sourcePoint" />
            <mxPoint x="430" y="380" as="targetPoint" />
            <Array as="points">
              <mxPoint x="78" y="430" />
            </Array>
          </mxGeometry>
        </mxCell>
        <mxCell id="2Tlwa4Nk3-ou1eAD5DM0-35" value="จัดการข้อมูลพนักงาน" style="text;html=1;align=center;verticalAlign=middle;resizable=0;points=[];autosize=1;strokeColor=none;fillColor=none;" vertex="1" parent="1">
          <mxGeometry x="120" y="390" width="165" height="60" as="geometry" />
        </mxCell>
        <mxCell id="2Tlwa4Nk3-ou1eAD5DM0-36" value="พนักงาน" style="shape=partialRectangle;whiteSpace=wrap;html=1;left=0;right=0;fillColor=none;" vertex="1" parent="1">
          <mxGeometry x="680" y="410" width="120" height="40" as="geometry" />
        </mxCell>
        <mxCell id="2Tlwa4Nk3-ou1eAD5DM0-37" value="D4" style="rounded=0;whiteSpace=wrap;html=1;" vertex="1" parent="1">
          <mxGeometry x="640" y="410" width="40" height="40" as="geometry" />
        </mxCell>
        <mxCell id="2Tlwa4Nk3-ou1eAD5DM0-38" value="" style="endArrow=classic;startArrow=classic;html=1;rounded=0;exitX=1;exitY=0.5;exitDx=0;exitDy=0;entryX=0;entryY=0.5;entryDx=0;entryDy=0;" edge="1" parent="1" source="2Tlwa4Nk3-ou1eAD5DM0-28" target="2Tlwa4Nk3-ou1eAD5DM0-37">
          <mxGeometry width="50" height="50" relative="1" as="geometry">
            <mxPoint x="550" y="420" as="sourcePoint" />
            <mxPoint x="600" y="370" as="targetPoint" />
          </mxGeometry>
        </mxCell>
        <mxCell id="2Tlwa4Nk3-ou1eAD5DM0-39" value="ข้อมูล&lt;span style=&quot;text-wrap-mode: wrap;&quot;&gt;พนักงาน&lt;/span&gt;" style="text;html=1;align=center;verticalAlign=middle;resizable=0;points=[];autosize=1;strokeColor=none;fillColor=none;" vertex="1" parent="1">
          <mxGeometry x="510" y="405" width="90" height="30" as="geometry" />
        </mxCell>
        <mxCell id="2Tlwa4Nk3-ou1eAD5DM0-40" value="3" style="swimlane;childLayout=stackLayout;horizontal=1;startSize=20;horizontalStack=0;rounded=1;fontSize=14;fontStyle=0;strokeWidth=2;resizeParent=0;resizeLast=1;shadow=0;dashed=0;align=center;arcSize=37;whiteSpace=wrap;html=1;" vertex="1" parent="1">
          <mxGeometry x="320" y="530" width="165" height="80" as="geometry" />
        </mxCell>
        <mxCell id="2Tlwa4Nk3-ou1eAD5DM0-41" value="จัดการข้อมูลลูกค้า" style="text;html=1;align=center;verticalAlign=middle;resizable=0;points=[];autosize=1;strokeColor=none;fillColor=none;" vertex="1" parent="2Tlwa4Nk3-ou1eAD5DM0-40">
          <mxGeometry y="20" width="165" height="60" as="geometry" />
        </mxCell>
        <mxCell id="2Tlwa4Nk3-ou1eAD5DM0-42" value="ลูกค้า" style="shape=partialRectangle;whiteSpace=wrap;html=1;left=0;right=0;fillColor=none;" vertex="1" parent="1">
          <mxGeometry x="680" y="550" width="120" height="40" as="geometry" />
        </mxCell>
        <mxCell id="2Tlwa4Nk3-ou1eAD5DM0-43" value="D5" style="rounded=0;whiteSpace=wrap;html=1;" vertex="1" parent="1">
          <mxGeometry x="640" y="550" width="40" height="40" as="geometry" />
        </mxCell>
        <mxCell id="2Tlwa4Nk3-ou1eAD5DM0-44" value="" style="endArrow=classic;startArrow=classic;html=1;rounded=0;exitX=1;exitY=0.5;exitDx=0;exitDy=0;entryX=0;entryY=0.5;entryDx=0;entryDy=0;" edge="1" parent="1" source="2Tlwa4Nk3-ou1eAD5DM0-40" target="2Tlwa4Nk3-ou1eAD5DM0-43">
          <mxGeometry width="50" height="50" relative="1" as="geometry">
            <mxPoint x="550" y="560" as="sourcePoint" />
            <mxPoint x="600" y="510" as="targetPoint" />
          </mxGeometry>
        </mxCell>
        <mxCell id="2Tlwa4Nk3-ou1eAD5DM0-45" value="ข้อมูล&lt;span style=&quot;text-wrap-mode: wrap;&quot;&gt;ลูกค้า&lt;/span&gt;" style="text;html=1;align=center;verticalAlign=middle;resizable=0;points=[];autosize=1;strokeColor=none;fillColor=none;" vertex="1" parent="1">
          <mxGeometry x="515" y="545" width="80" height="30" as="geometry" />
        </mxCell>
        <mxCell id="2Tlwa4Nk3-ou1eAD5DM0-46" value="" style="endArrow=classic;startArrow=classic;html=1;rounded=0;exitX=0.5;exitY=1;exitDx=0;exitDy=0;entryX=0;entryY=0.25;entryDx=0;entryDy=0;" edge="1" parent="1" source="2Tlwa4Nk3-ou1eAD5DM0-1" target="2Tlwa4Nk3-ou1eAD5DM0-40">
          <mxGeometry width="50" height="50" relative="1" as="geometry">
            <mxPoint x="290" y="490" as="sourcePoint" />
            <mxPoint x="300" y="570" as="targetPoint" />
            <Array as="points">
              <mxPoint x="55" y="550" />
            </Array>
          </mxGeometry>
        </mxCell>
        <mxCell id="2Tlwa4Nk3-ou1eAD5DM0-47" value="จัดการข้อมูลลูกค้า" style="text;html=1;align=center;verticalAlign=middle;resizable=0;points=[];autosize=1;strokeColor=none;fillColor=none;" vertex="1" parent="1">
          <mxGeometry x="120" y="510" width="165" height="60" as="geometry" />
        </mxCell>
        <mxCell id="2Tlwa4Nk3-ou1eAD5DM0-48" value="ลูกค้า" style="rounded=0;whiteSpace=wrap;html=1;" vertex="1" parent="1">
          <mxGeometry x="10" y="690" width="90" height="40" as="geometry" />
        </mxCell>
        <mxCell id="2Tlwa4Nk3-ou1eAD5DM0-49" value="" style="endArrow=classic;startArrow=classic;html=1;rounded=0;exitX=0.5;exitY=0;exitDx=0;exitDy=0;entryX=0;entryY=0.75;entryDx=0;entryDy=0;" edge="1" parent="1" source="2Tlwa4Nk3-ou1eAD5DM0-48" target="2Tlwa4Nk3-ou1eAD5DM0-40">
          <mxGeometry width="50" height="50" relative="1" as="geometry">
            <mxPoint x="30" y="590" as="sourcePoint" />
            <mxPoint x="300" y="590" as="targetPoint" />
            <Array as="points">
              <mxPoint x="55" y="590" />
            </Array>
          </mxGeometry>
        </mxCell>
        <mxCell id="2Tlwa4Nk3-ou1eAD5DM0-50" value="จัดการข้อมูลลูกค้า" style="text;html=1;align=center;verticalAlign=middle;resizable=0;points=[];autosize=1;strokeColor=none;fillColor=none;" vertex="1" parent="1">
          <mxGeometry x="120" y="550" width="165" height="60" as="geometry" />
        </mxCell>
        <mxCell id="2Tlwa4Nk3-ou1eAD5DM0-51" value="4" style="swimlane;childLayout=stackLayout;horizontal=1;startSize=20;horizontalStack=0;rounded=1;fontSize=14;fontStyle=0;strokeWidth=2;resizeParent=0;resizeLast=1;shadow=0;dashed=0;align=center;arcSize=37;whiteSpace=wrap;html=1;" vertex="1" parent="1">
          <mxGeometry x="320" y="670" width="165" height="80" as="geometry" />
        </mxCell>
        <mxCell id="2Tlwa4Nk3-ou1eAD5DM0-54" value="จัดการข้อมูลการจอง" style="text;html=1;align=center;verticalAlign=middle;resizable=0;points=[];autosize=1;strokeColor=none;fillColor=none;" vertex="1" parent="2Tlwa4Nk3-ou1eAD5DM0-51">
          <mxGeometry y="20" width="165" height="60" as="geometry" />
        </mxCell>
        <mxCell id="2Tlwa4Nk3-ou1eAD5DM0-53" value="" style="endArrow=classic;startArrow=classic;html=1;rounded=0;exitX=1;exitY=0.5;exitDx=0;exitDy=0;entryX=0;entryY=0.5;entryDx=0;entryDy=0;" edge="1" parent="1" source="2Tlwa4Nk3-ou1eAD5DM0-48" target="2Tlwa4Nk3-ou1eAD5DM0-51">
          <mxGeometry width="50" height="50" relative="1" as="geometry">
            <mxPoint x="350" y="750" as="sourcePoint" />
            <mxPoint x="320" y="735" as="targetPoint" />
          </mxGeometry>
        </mxCell>
        <mxCell id="2Tlwa4Nk3-ou1eAD5DM0-52" value="จัดการข้อมูลการจอง" style="text;html=1;align=center;verticalAlign=middle;resizable=0;points=[];autosize=1;strokeColor=none;fillColor=none;" vertex="1" parent="1">
          <mxGeometry x="127.5" y="670" width="165" height="60" as="geometry" />
        </mxCell>
        <mxCell id="2Tlwa4Nk3-ou1eAD5DM0-55" value="" style="endArrow=classic;html=1;rounded=0;exitX=1;exitY=0.5;exitDx=0;exitDy=0;entryX=1;entryY=0.75;entryDx=0;entryDy=0;" edge="1" parent="1" source="2Tlwa4Nk3-ou1eAD5DM0-20" target="2Tlwa4Nk3-ou1eAD5DM0-51">
          <mxGeometry width="50" height="50" relative="1" as="geometry">
            <mxPoint x="890" y="250" as="sourcePoint" />
            <mxPoint x="485" y="810" as="targetPoint" />
            <Array as="points">
              <mxPoint x="850" y="240" />
              <mxPoint x="850" y="730" />
            </Array>
          </mxGeometry>
        </mxCell>
        <mxCell id="2Tlwa4Nk3-ou1eAD5DM0-57" value="" style="endArrow=classic;html=1;rounded=0;exitX=1;exitY=0.5;exitDx=0;exitDy=0;" edge="1" parent="1" source="2Tlwa4Nk3-ou1eAD5DM0-22">
          <mxGeometry width="50" height="50" relative="1" as="geometry">
            <mxPoint x="600" y="440" as="sourcePoint" />
            <mxPoint x="485" y="700" as="targetPoint" />
            <Array as="points">
              <mxPoint x="830" y="320" />
              <mxPoint x="830" y="700" />
            </Array>
          </mxGeometry>
        </mxCell>
        <mxCell id="2Tlwa4Nk3-ou1eAD5DM0-60" value="ข้อมูล&lt;span style=&quot;text-wrap-mode: wrap;&quot;&gt;บริการ&lt;/span&gt;&lt;span style=&quot;color: rgba(0, 0, 0, 0); font-family: monospace; font-size: 0px; text-align: start;&quot;&gt;%3CmxGraphModel%3E%3Croot%3E%3CmxCell%20id%3D%220%22%2F%3E%3CmxCell%20id%3D%221%22%20parent%3D%220%22%2F%3E%3CmxCell%20id%3D%222%22%20value%3D%22%E0%B8%82%E0%B9%89%E0%B8%AD%E0%B8%A1%E0%B8%B9%E0%B8%A5%26lt%3Bspan%20style%3D%26quot%3Btext-wrap-mode%3A%20wrap%3B%26quot%3B%26gt%3B%E0%B8%A5%E0%B8%B9%E0%B8%81%E0%B8%84%E0%B9%89%E0%B8%B2%26lt%3B%2Fspan%26gt%3B%22%20style%3D%22text%3Bhtml%3D1%3Balign%3Dcenter%3BverticalAlign%3Dmiddle%3Bresizable%3D0%3Bpoints%3D%5B%5D%3Bautosize%3D1%3BstrokeColor%3Dnone%3BfillColor%3Dnone%3B%22%20vertex%3D%221%22%20parent%3D%221%22%3E%3CmxGeometry%20x%3D%22515%22%20y%3D%22545%22%20width%3D%2280%22%20height%3D%2230%22%20as%3D%22geometry%22%2F%3E%3C%2FmxCell%3E%3C%2Froot%3E%3C%2FmxGraphModel%3E&lt;/span&gt;" style="text;html=1;align=center;verticalAlign=middle;resizable=0;points=[];autosize=1;strokeColor=none;fillColor=none;" vertex="1" parent="1">
          <mxGeometry x="570" y="670" width="80" height="30" as="geometry" />
        </mxCell>
        <mxCell id="2Tlwa4Nk3-ou1eAD5DM0-61" value="ข้อมูลแพ็กเกจ" style="text;align=center;verticalAlign=middle;resizable=0;points=[];autosize=1;strokeColor=none;fillColor=none;" vertex="1" parent="1">
          <mxGeometry x="570" y="700" width="90" height="30" as="geometry" />
        </mxCell>
        <mxCell id="2Tlwa4Nk3-ou1eAD5DM0-62" value="" style="endArrow=classic;startArrow=classic;html=1;rounded=0;exitX=0.75;exitY=1;exitDx=0;exitDy=0;entryX=0;entryY=0.5;entryDx=0;entryDy=0;" edge="1" parent="1" source="2Tlwa4Nk3-ou1eAD5DM0-51" target="2Tlwa4Nk3-ou1eAD5DM0-64">
          <mxGeometry width="50" height="50" relative="1" as="geometry">
            <mxPoint x="450" y="770" as="sourcePoint" />
            <mxPoint x="560" y="690" as="targetPoint" />
            <Array as="points">
              <mxPoint x="444" y="800" />
            </Array>
          </mxGeometry>
        </mxCell>
        <mxCell id="2Tlwa4Nk3-ou1eAD5DM0-63" value="การจอง" style="shape=partialRectangle;whiteSpace=wrap;html=1;left=0;right=0;fillColor=none;" vertex="1" parent="1">
          <mxGeometry x="680" y="780" width="120" height="40" as="geometry" />
        </mxCell>
        <mxCell id="2Tlwa4Nk3-ou1eAD5DM0-64" value="D6" style="rounded=0;whiteSpace=wrap;html=1;" vertex="1" parent="1">
          <mxGeometry x="640" y="780" width="40" height="40" as="geometry" />
        </mxCell>
        <mxCell id="2Tlwa4Nk3-ou1eAD5DM0-66" value="&lt;span style=&quot;color: rgb(0, 0, 0); font-family: Helvetica; font-size: 12px; font-style: normal; font-variant-ligatures: normal; font-variant-caps: normal; font-weight: 400; letter-spacing: normal; orphans: 2; text-align: center; text-indent: 0px; text-transform: none; widows: 2; word-spacing: 0px; -webkit-text-stroke-width: 0px; white-space: normal; background-color: rgb(251, 251, 251); text-decoration-thickness: initial; text-decoration-style: initial; text-decoration-color: initial; float: none; display: inline !important;&quot;&gt;ข้อมูลการจอง&lt;/span&gt;" style="text;whiteSpace=wrap;html=1;verticalAlign=middle;" vertex="1" parent="1">
          <mxGeometry x="510" y="770" width="70" height="40" as="geometry" />
        </mxCell>
        <mxCell id="2Tlwa4Nk3-ou1eAD5DM0-67" value="5" style="swimlane;childLayout=stackLayout;horizontal=1;startSize=20;horizontalStack=0;rounded=1;fontSize=14;fontStyle=0;strokeWidth=2;resizeParent=0;resizeLast=1;shadow=0;dashed=0;align=center;arcSize=37;whiteSpace=wrap;html=1;" vertex="1" parent="1">
          <mxGeometry x="320" y="850" width="165" height="80" as="geometry" />
        </mxCell>
        <mxCell id="2Tlwa4Nk3-ou1eAD5DM0-68" value="จัดการข้อมูลการชำระเงิน" style="text;html=1;align=center;verticalAlign=middle;resizable=0;points=[];autosize=1;strokeColor=none;fillColor=none;" vertex="1" parent="2Tlwa4Nk3-ou1eAD5DM0-67">
          <mxGeometry y="20" width="165" height="60" as="geometry" />
        </mxCell>
        <mxCell id="2Tlwa4Nk3-ou1eAD5DM0-69" value="" style="endArrow=classic;startArrow=classic;html=1;rounded=0;exitX=0.75;exitY=1;exitDx=0;exitDy=0;entryX=0;entryY=0.5;entryDx=0;entryDy=0;" edge="1" parent="1" source="2Tlwa4Nk3-ou1eAD5DM0-48" target="2Tlwa4Nk3-ou1eAD5DM0-67">
          <mxGeometry width="50" height="50" relative="1" as="geometry">
            <mxPoint x="510" y="840" as="sourcePoint" />
            <mxPoint x="560" y="790" as="targetPoint" />
            <Array as="points">
              <mxPoint x="78" y="890" />
            </Array>
          </mxGeometry>
        </mxCell>
        <mxCell id="2Tlwa4Nk3-ou1eAD5DM0-70" value="&lt;span style=&quot;color: rgb(0, 0, 0); font-family: Helvetica; font-size: 12px; font-style: normal; font-variant-ligatures: normal; font-variant-caps: normal; font-weight: 400; letter-spacing: normal; orphans: 2; text-align: center; text-indent: 0px; text-transform: none; widows: 2; word-spacing: 0px; -webkit-text-stroke-width: 0px; white-space: nowrap; background-color: rgb(251, 251, 251); text-decoration-thickness: initial; text-decoration-style: initial; text-decoration-color: initial; display: inline !important; float: none;&quot;&gt;จัดการข้อมูลการชำระเงิน&lt;/span&gt;" style="text;whiteSpace=wrap;html=1;" vertex="1" parent="1">
          <mxGeometry x="150" y="860" width="150" height="40" as="geometry" />
        </mxCell>
        <mxCell id="2Tlwa4Nk3-ou1eAD5DM0-72" value="" style="endArrow=classic;html=1;rounded=0;entryX=1;entryY=0.25;entryDx=0;entryDy=0;exitX=1;exitY=0.5;exitDx=0;exitDy=0;" edge="1" parent="1" source="2Tlwa4Nk3-ou1eAD5DM0-63" target="2Tlwa4Nk3-ou1eAD5DM0-67">
          <mxGeometry width="50" height="50" relative="1" as="geometry">
            <mxPoint x="720" y="880" as="sourcePoint" />
            <mxPoint x="510" y="880" as="targetPoint" />
            <Array as="points">
              <mxPoint x="820" y="800" />
              <mxPoint x="820" y="870" />
            </Array>
          </mxGeometry>
        </mxCell>
        <mxCell id="2Tlwa4Nk3-ou1eAD5DM0-73" value="&lt;span style=&quot;color: rgb(0, 0, 0); font-family: Helvetica; font-size: 12px; font-style: normal; font-variant-ligatures: normal; font-variant-caps: normal; font-weight: 400; letter-spacing: normal; orphans: 2; text-indent: 0px; text-transform: none; widows: 2; word-spacing: 0px; -webkit-text-stroke-width: 0px; white-space: normal; background-color: rgb(251, 251, 251); text-decoration-thickness: initial; text-decoration-style: initial; text-decoration-color: initial; float: none; display: inline !important;&quot;&gt;ข้อมูลการจอง&lt;/span&gt;" style="text;whiteSpace=wrap;html=1;align=center;verticalAlign=middle;" vertex="1" parent="1">
          <mxGeometry x="595" y="840" width="70" height="40" as="geometry" />
        </mxCell>
        <mxCell id="2Tlwa4Nk3-ou1eAD5DM0-75" value="บริการ" style="shape=partialRectangle;whiteSpace=wrap;html=1;left=0;right=0;fillColor=none;" vertex="1" parent="1">
          <mxGeometry x="680" y="890" width="120" height="40" as="geometry" />
        </mxCell>
        <mxCell id="2Tlwa4Nk3-ou1eAD5DM0-76" value="D2" style="rounded=0;whiteSpace=wrap;html=1;" vertex="1" parent="1">
          <mxGeometry x="640" y="890" width="40" height="40" as="geometry" />
        </mxCell>
        <mxCell id="2Tlwa4Nk3-ou1eAD5DM0-77" value="แพ็กเกจ" style="shape=partialRectangle;whiteSpace=wrap;html=1;left=0;right=0;fillColor=none;" vertex="1" parent="1">
          <mxGeometry x="680" y="940" width="120" height="40" as="geometry" />
        </mxCell>
        <mxCell id="2Tlwa4Nk3-ou1eAD5DM0-78" value="D3" style="rounded=0;whiteSpace=wrap;html=1;" vertex="1" parent="1">
          <mxGeometry x="640" y="940" width="40" height="40" as="geometry" />
        </mxCell>
        <mxCell id="2Tlwa4Nk3-ou1eAD5DM0-79" value="พนักงาน" style="shape=partialRectangle;whiteSpace=wrap;html=1;left=0;right=0;fillColor=none;" vertex="1" parent="1">
          <mxGeometry x="680" y="990" width="120" height="40" as="geometry" />
        </mxCell>
        <mxCell id="2Tlwa4Nk3-ou1eAD5DM0-80" value="D4" style="rounded=0;whiteSpace=wrap;html=1;" vertex="1" parent="1">
          <mxGeometry x="640" y="990" width="40" height="40" as="geometry" />
        </mxCell>
        <mxCell id="2Tlwa4Nk3-ou1eAD5DM0-81" value="ลูกค้า" style="shape=partialRectangle;whiteSpace=wrap;html=1;left=0;right=0;fillColor=none;" vertex="1" parent="1">
          <mxGeometry x="680" y="1040" width="120" height="40" as="geometry" />
        </mxCell>
        <mxCell id="2Tlwa4Nk3-ou1eAD5DM0-82" value="D5" style="rounded=0;whiteSpace=wrap;html=1;" vertex="1" parent="1">
          <mxGeometry x="640" y="1040" width="40" height="40" as="geometry" />
        </mxCell>
        <mxCell id="2Tlwa4Nk3-ou1eAD5DM0-84" value="" style="endArrow=classic;html=1;rounded=0;entryX=1;entryY=0.75;entryDx=0;entryDy=0;exitX=0;exitY=0.5;exitDx=0;exitDy=0;" edge="1" parent="1" source="2Tlwa4Nk3-ou1eAD5DM0-76" target="2Tlwa4Nk3-ou1eAD5DM0-67">
          <mxGeometry width="50" height="50" relative="1" as="geometry">
            <mxPoint x="690" y="1010" as="sourcePoint" />
            <mxPoint x="520" y="900" as="targetPoint" />
          </mxGeometry>
        </mxCell>
        <mxCell id="2Tlwa4Nk3-ou1eAD5DM0-85" value="" style="endArrow=none;html=1;rounded=0;entryX=0;entryY=0.5;entryDx=0;entryDy=0;" edge="1" parent="1" target="2Tlwa4Nk3-ou1eAD5DM0-78">
          <mxGeometry width="50" height="50" relative="1" as="geometry">
            <mxPoint x="530" y="910" as="sourcePoint" />
            <mxPoint x="530" y="960" as="targetPoint" />
            <Array as="points">
              <mxPoint x="530" y="960" />
            </Array>
          </mxGeometry>
        </mxCell>
        <mxCell id="2Tlwa4Nk3-ou1eAD5DM0-86" value="" style="endArrow=none;html=1;rounded=0;entryX=0;entryY=0.5;entryDx=0;entryDy=0;" edge="1" parent="1">
          <mxGeometry width="50" height="50" relative="1" as="geometry">
            <mxPoint x="530" y="960" as="sourcePoint" />
            <mxPoint x="640" y="1010" as="targetPoint" />
            <Array as="points">
              <mxPoint x="530" y="1010" />
            </Array>
          </mxGeometry>
        </mxCell>
        <mxCell id="2Tlwa4Nk3-ou1eAD5DM0-87" value="" style="endArrow=none;html=1;rounded=0;entryX=0;entryY=0.5;entryDx=0;entryDy=0;" edge="1" parent="1">
          <mxGeometry width="50" height="50" relative="1" as="geometry">
            <mxPoint x="530" y="1010" as="sourcePoint" />
            <mxPoint x="640" y="1060" as="targetPoint" />
            <Array as="points">
              <mxPoint x="530" y="1060" />
            </Array>
          </mxGeometry>
        </mxCell>
        <mxCell id="2Tlwa4Nk3-ou1eAD5DM0-88" value="ข้อมูลบริการ" style="text;align=center;verticalAlign=bottom;resizable=0;points=[];autosize=1;strokeColor=none;fillColor=none;" vertex="1" parent="1">
          <mxGeometry x="540" y="880" width="80" height="30" as="geometry" />
        </mxCell>
        <mxCell id="2Tlwa4Nk3-ou1eAD5DM0-89" value="ข้อมูลแพ็กเกจ" style="text;align=center;verticalAlign=middle;resizable=0;points=[];autosize=1;strokeColor=none;fillColor=none;" vertex="1" parent="1">
          <mxGeometry x="540" y="930" width="90" height="30" as="geometry" />
        </mxCell>
        <mxCell id="2Tlwa4Nk3-ou1eAD5DM0-90" value="ข้อมูล&lt;span style=&quot;text-wrap-mode: wrap;&quot;&gt;พนักงาน&lt;/span&gt;" style="text;html=1;align=center;verticalAlign=middle;resizable=0;points=[];autosize=1;strokeColor=none;fillColor=none;" vertex="1" parent="1">
          <mxGeometry x="540" y="980" width="90" height="30" as="geometry" />
        </mxCell>
        <mxCell id="2Tlwa4Nk3-ou1eAD5DM0-91" value="ข้อมูล&lt;span style=&quot;text-wrap-mode: wrap;&quot;&gt;ลูกค้า&lt;/span&gt;" style="text;html=1;align=center;verticalAlign=middle;resizable=0;points=[];autosize=1;strokeColor=none;fillColor=none;" vertex="1" parent="1">
          <mxGeometry x="545" y="1030" width="80" height="30" as="geometry" />
        </mxCell>
        <mxCell id="2Tlwa4Nk3-ou1eAD5DM0-92" value="การชำระเงิน" style="shape=partialRectangle;whiteSpace=wrap;html=1;left=0;right=0;fillColor=none;" vertex="1" parent="1">
          <mxGeometry x="680" y="1110" width="120" height="40" as="geometry" />
        </mxCell>
        <mxCell id="2Tlwa4Nk3-ou1eAD5DM0-93" value="D7" style="rounded=0;whiteSpace=wrap;html=1;" vertex="1" parent="1">
          <mxGeometry x="640" y="1110" width="40" height="40" as="geometry" />
        </mxCell>
        <mxCell id="2Tlwa4Nk3-ou1eAD5DM0-94" value="" style="endArrow=classic;startArrow=classic;html=1;rounded=0;exitX=0.75;exitY=1;exitDx=0;exitDy=0;entryX=0;entryY=0.5;entryDx=0;entryDy=0;" edge="1" parent="1" source="2Tlwa4Nk3-ou1eAD5DM0-67" target="2Tlwa4Nk3-ou1eAD5DM0-93">
          <mxGeometry width="50" height="50" relative="1" as="geometry">
            <mxPoint x="430" y="960" as="sourcePoint" />
            <mxPoint x="490" y="950" as="targetPoint" />
            <Array as="points">
              <mxPoint x="444" y="1130" />
            </Array>
          </mxGeometry>
        </mxCell>
        <mxCell id="2Tlwa4Nk3-ou1eAD5DM0-95" value="ข้อมูลการชำระเงิน" style="text;align=center;verticalAlign=middle;resizable=0;points=[];autosize=1;strokeColor=none;fillColor=none;" vertex="1" parent="1">
          <mxGeometry x="465" y="1098" width="110" height="30" as="geometry" />
        </mxCell>
        <mxCell id="2Tlwa4Nk3-ou1eAD5DM0-97" value="6" style="swimlane;childLayout=stackLayout;horizontal=1;startSize=20;horizontalStack=0;rounded=1;fontSize=14;fontStyle=0;strokeWidth=2;resizeParent=0;resizeLast=1;shadow=0;dashed=0;align=center;arcSize=37;whiteSpace=wrap;html=1;" vertex="1" parent="1">
          <mxGeometry x="320" y="1180" width="165" height="110" as="geometry" />
        </mxCell>
        <mxCell id="2Tlwa4Nk3-ou1eAD5DM0-98" value="ดูประวัติการใช้งาน" style="text;html=1;align=center;verticalAlign=middle;resizable=0;points=[];autosize=1;strokeColor=none;fillColor=none;" vertex="1" parent="2Tlwa4Nk3-ou1eAD5DM0-97">
          <mxGeometry y="20" width="165" height="90" as="geometry" />
        </mxCell>
        <mxCell id="2Tlwa4Nk3-ou1eAD5DM0-99" value="" style="endArrow=classic;startArrow=classic;html=1;rounded=0;exitX=0.5;exitY=1;exitDx=0;exitDy=0;" edge="1" parent="1" source="2Tlwa4Nk3-ou1eAD5DM0-48">
          <mxGeometry width="50" height="50" relative="1" as="geometry">
            <mxPoint x="270" y="1020" as="sourcePoint" />
            <mxPoint x="320" y="1220" as="targetPoint" />
            <Array as="points">
              <mxPoint x="55" y="1220" />
            </Array>
          </mxGeometry>
        </mxCell>
        <mxCell id="2Tlwa4Nk3-ou1eAD5DM0-100" value="ดูประวัติการใช้งาน" style="text;html=1;align=center;verticalAlign=middle;resizable=0;points=[];autosize=1;strokeColor=none;fillColor=none;" vertex="1" parent="1">
          <mxGeometry x="90" y="1180" width="165" height="60" as="geometry" />
        </mxCell>
        <mxCell id="2Tlwa4Nk3-ou1eAD5DM0-101" value="ผู้ดูแลระบบ" style="rounded=0;whiteSpace=wrap;html=1;" vertex="1" parent="1">
          <mxGeometry x="10" y="1310" width="90" height="40" as="geometry" />
        </mxCell>
        <mxCell id="2Tlwa4Nk3-ou1eAD5DM0-102" value="" style="endArrow=classic;startArrow=classic;html=1;rounded=0;exitX=0.5;exitY=0;exitDx=0;exitDy=0;entryX=0;entryY=0.75;entryDx=0;entryDy=0;" edge="1" parent="1" source="2Tlwa4Nk3-ou1eAD5DM0-101" target="2Tlwa4Nk3-ou1eAD5DM0-97">
          <mxGeometry width="50" height="50" relative="1" as="geometry">
            <mxPoint x="170" y="1230" as="sourcePoint" />
            <mxPoint x="220" y="1180" as="targetPoint" />
            <Array as="points">
              <mxPoint x="55" y="1263" />
            </Array>
          </mxGeometry>
        </mxCell>
        <mxCell id="2Tlwa4Nk3-ou1eAD5DM0-103" value="ดูประวัติการใช้งาน" style="text;html=1;align=center;verticalAlign=middle;resizable=0;points=[];autosize=1;strokeColor=none;fillColor=none;" vertex="1" parent="1">
          <mxGeometry x="90" y="1220" width="165" height="60" as="geometry" />
        </mxCell>
        <mxCell id="2Tlwa4Nk3-ou1eAD5DM0-104" value="" style="endArrow=classic;html=1;rounded=0;entryX=1;entryY=0.5;entryDx=0;entryDy=0;" edge="1" parent="1">
          <mxGeometry width="50" height="50" relative="1" as="geometry">
            <mxPoint x="920" y="1240" as="sourcePoint" />
            <mxPoint x="485" y="1240" as="targetPoint" />
          </mxGeometry>
        </mxCell>
        <mxCell id="2Tlwa4Nk3-ou1eAD5DM0-105" value="" style="endArrow=none;html=1;rounded=0;" edge="1" parent="1">
          <mxGeometry width="50" height="50" relative="1" as="geometry">
            <mxPoint x="920" y="1240" as="sourcePoint" />
            <mxPoint x="920" y="910" as="targetPoint" />
          </mxGeometry>
        </mxCell>
        <mxCell id="2Tlwa4Nk3-ou1eAD5DM0-106" value="" style="endArrow=none;html=1;rounded=0;exitX=1;exitY=0.5;exitDx=0;exitDy=0;" edge="1" parent="1" source="2Tlwa4Nk3-ou1eAD5DM0-75">
          <mxGeometry width="50" height="50" relative="1" as="geometry">
            <mxPoint x="640" y="1100" as="sourcePoint" />
            <mxPoint x="920" y="910" as="targetPoint" />
          </mxGeometry>
        </mxCell>
        <mxCell id="2Tlwa4Nk3-ou1eAD5DM0-107" value="" style="endArrow=none;html=1;rounded=0;exitX=1;exitY=0.5;exitDx=0;exitDy=0;" edge="1" parent="1">
          <mxGeometry width="50" height="50" relative="1" as="geometry">
            <mxPoint x="800" y="960" as="sourcePoint" />
            <mxPoint x="920" y="960" as="targetPoint" />
          </mxGeometry>
        </mxCell>
        <mxCell id="2Tlwa4Nk3-ou1eAD5DM0-108" value="" style="endArrow=none;html=1;rounded=0;exitX=1;exitY=0.5;exitDx=0;exitDy=0;" edge="1" parent="1">
          <mxGeometry width="50" height="50" relative="1" as="geometry">
            <mxPoint x="800" y="1009.52" as="sourcePoint" />
            <mxPoint x="920" y="1009.52" as="targetPoint" />
          </mxGeometry>
        </mxCell>
        <mxCell id="2Tlwa4Nk3-ou1eAD5DM0-109" value="" style="endArrow=none;html=1;rounded=0;exitX=1;exitY=0.5;exitDx=0;exitDy=0;" edge="1" parent="1">
          <mxGeometry width="50" height="50" relative="1" as="geometry">
            <mxPoint x="800" y="1060" as="sourcePoint" />
            <mxPoint x="920" y="1060" as="targetPoint" />
          </mxGeometry>
        </mxCell>
        <mxCell id="2Tlwa4Nk3-ou1eAD5DM0-110" value="" style="endArrow=none;html=1;rounded=0;exitX=1;exitY=0.5;exitDx=0;exitDy=0;" edge="1" parent="1">
          <mxGeometry width="50" height="50" relative="1" as="geometry">
            <mxPoint x="800" y="1129.52" as="sourcePoint" />
            <mxPoint x="920" y="1129.52" as="targetPoint" />
          </mxGeometry>
        </mxCell>
        <mxCell id="2Tlwa4Nk3-ou1eAD5DM0-111" value="ข้อมูลบริการ" style="text;align=center;verticalAlign=bottom;resizable=0;points=[];autosize=1;strokeColor=none;fillColor=none;" vertex="1" parent="1">
          <mxGeometry x="815" y="880" width="80" height="30" as="geometry" />
        </mxCell>
        <mxCell id="2Tlwa4Nk3-ou1eAD5DM0-112" value="ข้อมูลแพ็กเกจ" style="text;align=center;verticalAlign=middle;resizable=0;points=[];autosize=1;strokeColor=none;fillColor=none;" vertex="1" parent="1">
          <mxGeometry x="815" y="930" width="90" height="30" as="geometry" />
        </mxCell>
        <mxCell id="2Tlwa4Nk3-ou1eAD5DM0-113" value="ข้อมูล&lt;span style=&quot;text-wrap-mode: wrap;&quot;&gt;พนักงาน&lt;/span&gt;" style="text;html=1;align=center;verticalAlign=middle;resizable=0;points=[];autosize=1;strokeColor=none;fillColor=none;" vertex="1" parent="1">
          <mxGeometry x="815" y="980" width="90" height="30" as="geometry" />
        </mxCell>
        <mxCell id="2Tlwa4Nk3-ou1eAD5DM0-114" value="ข้อมูล&lt;span style=&quot;text-wrap-mode: wrap;&quot;&gt;ลูกค้า&lt;/span&gt;" style="text;html=1;align=center;verticalAlign=middle;resizable=0;points=[];autosize=1;strokeColor=none;fillColor=none;" vertex="1" parent="1">
          <mxGeometry x="820" y="1030" width="80" height="30" as="geometry" />
        </mxCell>
        <mxCell id="2Tlwa4Nk3-ou1eAD5DM0-115" value="ข้อมูลการชำระเงิน" style="text;align=center;verticalAlign=bottom;resizable=0;points=[];autosize=1;strokeColor=none;fillColor=none;" vertex="1" parent="1">
          <mxGeometry x="805" y="1098" width="110" height="30" as="geometry" />
        </mxCell>
      </root>
    </mxGraphModel>
  </diagram>
</mxfile>
